<svg xmlns="http://www.w3.org/2000/svg"><defs><font horiz-adv-x="512"><font-face font-family="standard-code" units-per-em="512" ascent="480" descent="-32"/><glyph unicode="b" d="M201 165c0-8-1-16-3-24-3-8-7-15-13-22-6-6-12-9-20-9s-15 3-21 9c-6 7-10 14-12 22-3 8-4 16-4 24 0 7 1 15 4 23 2 8 6 15 12 22 6 6 13 9 21 9s14-3 20-9c6-7 10-14 13-22 2-8 3-16 3-23zm183 0c0-8-1-16-4-24-2-8-6-15-12-22-6-6-13-9-21-9s-14 3-20 9c-6 7-10 14-13 22-2 8-3 16-3 24 0 7 1 15 3 23 3 8 7 15 13 22 6 6 12 9 20 9s15-3 21-9c6-7 10-14 12-22 3-8 4-16 4-23zm46 0c0 22-7 42-20 58s-31 24-53 24c-8 0-27-2-56-6-14-2-29-3-45-3s-31 1-45 3c-29 4-47 6-56 6-22 0-40-8-53-24s-20-36-20-58c0-17 3-32 9-44 7-13 14-23 24-30 9-7 21-13 34-17 14-4 28-7 40-8 13-2 27-2 43-2h48c16 0 30 0 43 2 12 1 26 4 40 8 13 4 25 10 34 17 10 7 17 17 24 30 6 12 9 27 9 44zm64 50c0-40-6-71-18-95-7-14-17-27-30-38-13-10-26-19-40-24-14-6-30-11-49-14-18-3-34-5-49-6-14-1-30-1-47-1h-41c-12 1-26 2-42 4s-31 5-44 9c-13 3-26 8-39 14s-24 14-34 23c-11 10-19 21-25 33-12 24-18 55-18 95 0 45 13 83 39 113-5 16-8 32-8 49 0 22 5 42 15 62 21 0 39-4 54-11 16-8 34-20 54-36 28 7 58 10 89 10 28 0 54-3 80-9 20 16 37 27 53 35 16 7 34 11 54 11 10-20 15-40 15-62 0-17-3-33-8-48 26-31 39-69 39-114z"/><glyph unicode="c" d="M481 395c-13-18-28-34-46-47v-12c0-25-3-50-11-74-7-25-18-49-33-71-14-23-32-43-52-61-21-17-45-31-74-41-29-11-60-16-92-16-52 0-99 14-142 42 7-1 14-2 22-2 43 0 81 14 115 40-20 0-38 6-54 18s-27 27-33 46c7-1 13-2 18-2 8 0 16 1 24 4-21 4-39 15-53 31-14 17-21 37-21 59v1c13-7 27-11 42-11-13 8-23 19-30 32-8 14-11 29-11 44 0 17 4 33 12 47 23-28 51-51 84-68s69-27 107-29c-2 8-3 15-3 22 0 25 9 47 27 65s40 27 66 27 49-10 67-29c21 4 40 11 59 22-7-22-21-39-41-51 18 2 35 7 53 14z"/><glyph unicode="a" d="M426 105v185h-39c4-12 6-25 6-38 0-24-6-46-18-66-13-20-29-36-50-48s-44-18-69-18c-37 0-69 13-96 39s-40 57-40 93c0 13 2 26 6 38h-41v-185c0-5 2-10 5-13 4-3 8-5 13-5h305c5 0 9 2 13 5 3 3 5 8 5 13zm-81 152c0 23-9 44-26 60-18 17-38 25-63 25-24 0-45-8-62-25-17-16-26-37-26-60 0-24 9-44 26-61 17-16 38-25 62-25 25 0 45 9 63 25 17 17 26 37 26 61zm81 103v47c0 5-2 10-6 14s-8 6-14 6h-50c-5 0-10-2-14-6s-5-9-5-14v-47c0-6 1-10 5-14s9-6 14-6h50c6 0 10 2 14 6s6 8 6 14zm49 59v-326c0-16-5-29-16-40s-24-16-40-16h-326c-16 0-29 5-40 16s-16 24-16 40v326c0 16 5 29 16 40s24 16 40 16h326c16 0 29-5 40-16s16-24 16-40z"/><glyph unicode="d" d="M399 174c0-3-1-5-3-7l-15-14c-1-2-4-3-6-3-3 0-5 1-7 3l-112 112-112-112c-2-2-4-3-7-3-2 0-5 1-6 3l-15 14c-2 2-3 4-3 7 0 2 1 4 3 6l133 133c2 2 5 3 7 3s5-1 7-3l133-133c2-2 3-4 3-6z"/><glyph unicode="e" d="M479 165c0-11-4-19-11-26l-21-22c-8-7-16-10-26-10-11 0-19 3-26 10l-139 139-139-139c-7-7-15-10-26-10-10 0-18 3-25 10l-22 22c-7 7-11 15-11 26 0 10 4 18 11 26l186 186c7 7 16 10 26 10s19-3 26-10l186-186c7-8 11-16 11-26z"/><glyph unicode="f" d="M479 311c0-10-4-19-11-26l-186-186c-7-7-16-11-26-11s-19 4-26 11l-186 186c-7 7-11 16-11 26s4 19 11 26l21 21c8 7 17 11 26 11 11 0 19-4 26-11l139-139 139 139c7 7 15 11 26 11 9 0 18-4 26-11l21-21c7-8 11-16 11-26z"/><glyph unicode="g" d="M256 37c-5 0-9 1-13 5l-178 172-8 7c-3 4-8 10-16 19-7 9-13 18-19 28-6 9-11 21-15 34-5 14-7 27-7 40 0 42 12 74 36 98s58 35 101 35c11 0 23-2 36-6 12-4 23-9 34-16s20-14 27-20c8-6 15-12 22-19 7 7 14 13 22 19 7 6 16 13 27 20s22 12 34 16c13 4 25 6 36 6 43 0 77-11 101-35s36-56 36-98-22-85-65-129l-178-171c-4-4-8-5-13-5z"/><glyph unicode="i" d="M343 225l88 85-121 18-54 109-54-109-121-18 88-85-21-120 108 57 108-57zm151 102c0-4-3-9-8-14l-103-101 24-143v-5c0-10-3-15-11-15-4 0-8 2-12 4l-128 67-128-67c-4-2-8-4-12-4s-7 2-9 5c-2 2-3 6-3 10 0 1 0 3 1 5l24 143-104 101c-4 6-7 10-7 14 0 7 6 12 16 13l144 21 64 130c4 8 8 12 14 12s10-4 14-12l64-130 144-21c10-1 16-6 16-13z"/><glyph unicode="h" d="M475 82v220c-6-7-12-13-19-19-51-39-92-72-122-97-10-8-18-14-24-19-6-4-14-9-24-14-11-4-21-7-30-7s-19 3-30 7c-10 5-18 10-24 14-6 5-14 11-24 19-30 25-71 58-122 97-7 6-13 12-19 19v-220c0-2 0-4 2-6s4-3 7-3h420c3 0 5 1 7 3s2 4 2 6zm0 301v10c0 3 0 4-1 4 0 0-1 1-1 2-1 2-2 3-3 3-1-1-2-1-4 0h-420c-3 0-5-1-7-2-2-2-2-4-2-7 0-32 14-59 42-81 36-29 75-59 114-91 1-1 5-3 10-8 6-5 10-8 13-11 4-2 8-5 13-9 5-3 10-6 14-8 5-1 9-2 13-2s8 1 13 2c4 2 9 5 14 8 5 4 9 7 13 9 3 3 7 6 13 11 5 5 9 7 10 8 39 32 78 62 114 91 11 8 20 19 29 33s13 26 13 38zm37 10v-311c0-12-4-23-13-32s-20-13-33-13h-420c-13 0-24 4-33 13s-13 20-13 32v311c0 13 4 23 13 32s20 14 33 14h420c13 0 24-5 33-14s13-19 13-32z"/><glyph unicode="j" d="M90 357c0-6 5-12 11-12h310c6 0 11 6 11 12v54c0 6-5 11-11 11h-310c-6 0-11-5-11-11v-1zm321-63h-310c-6 0-11-5-11-11v-54c0-6 5-11 11-11h310c6 0 11 5 11 11v54c0 6-5 11-11 11zm0-127h-310c-6 0-11-6-11-12v-54c0-6 5-11 11-11h310c6 0 11 5 11 11v54c0 6-5 12-11 12z"/><glyph unicode="k" d="M434 160l-96 96 96 96c4 4 4 10 0 14l-68 68c-4 4-10 4-14 0l-96-96-96 96c-4 4-11 4-14 0l-68-68c-2-1-3-4-3-7 0-2 1-5 3-7l96-96-96-96c-2-2-3-5-3-7 0-3 1-6 3-7l68-68c1-2 4-3 7-3 2 0 5 1 7 3l96 96 96-96c2-2 5-3 7-3 3 0 5 1 7 3l68 68c4 4 4 10 0 14z"/><glyph unicode="l" d="M344 357c0-3-1-5-3-7l-112-112 112-113c2-1 3-4 3-6 0-3-1-5-3-7l-14-14c-2-2-5-3-7-3s-5 1-7 3l-133 133c-2 2-3 4-3 7 0 2 1 4 3 6l133 133c2 2 5 3 7 3s5-1 7-3l14-14c2-2 3-4 3-6z"/><glyph unicode="m" d="M335 238c0-3-1-5-3-7l-133-133c-2-2-5-3-7-3s-5 1-7 3l-14 14c-2 2-3 4-3 7 0 2 1 5 3 6l112 113-112 112c-2 2-3 4-3 7 0 2 1 4 3 6l14 14c2 2 5 3 7 3s5-1 7-3l133-133c2-2 3-4 3-6z"/><glyph unicode="n" d="M279 110c0 6-2 11-7 16-4 4-10 7-16 7s-12-3-16-7c-5-5-7-10-7-16 0-7 2-12 7-16 4-5 10-7 16-7s12 2 16 7c5 4 7 9 7 16zm59 45v202c0 2-1 4-2 6-2 2-4 3-7 3h-146c-3 0-5-1-7-3-1-2-2-4-2-6v-202c0-2 1-4 2-6 2-2 4-3 7-3h146c3 0 5 1 7 3 1 2 2 4 2 6zm-55 243c0 3-1 4-4 4h-46c-3 0-4-1-4-4s1-5 4-5h46c3 0 4 2 4 5zm83 4v-292c0-10-4-19-11-26s-16-11-26-11h-146c-10 0-19 4-26 11s-11 16-11 26v292c0 10 4 19 11 26s16 11 26 11h146c10 0 19-4 26-11s11-16 11-26z"/><glyph unicode="o" d="M478 230v222c0 3-1 5-3 6-1 2-3 3-6 3h-426c-3 0-5-1-6-3-2-1-3-3-3-6v-222c0-2 1-4 3-6 1-1 3-2 6-2h426c3 0 5 1 6 2 2 2 3 4 3 6zm34 222v-290c0-12-4-22-13-30-8-8-18-13-30-13h-145c0-6 2-13 5-20 2-7 5-14 8-19 3-6 4-9 4-12 0-4-1-8-5-12-3-3-7-5-12-5h-136c-5 0-9 2-12 5-4 4-5 8-5 12 0 3 1 7 4 12s6 12 8 19c3 7 5 14 5 20h-145c-12 0-22 5-30 13-9 8-13 18-13 30v290c0 12 4 22 13 30 8 9 18 13 30 13h426c12 0 22-4 30-13 9-8 13-18 13-30z"/><glyph unicode="p" d="M111 154c-12 0-22 4-30 12-9 8-13 19-13 30v188c0 12 4 22 13 30 8 8 18 13 30 13h290c12 0 22-5 30-13 9-8 13-18 13-30v-188c0-11-4-22-13-30-8-8-18-12-30-12zm-9 230v-188c0-2 1-4 3-6 2-1 4-2 6-2h290c2 0 4 1 6 2 2 2 3 4 3 6v188c0 2-1 4-3 6s-4 3-6 3h-290c-2 0-4-1-6-3s-3-4-3-6zm367-247h43v-26c0-7-4-13-13-18-8-5-18-8-30-8h-426c-12 0-22 3-30 8-9 5-13 11-13 18v26zm-192-26c3 0 5 1 5 4s-2 4-5 4h-42c-3 0-5-1-5-4s2-4 5-4z"/><glyph unicode="q" d="M405 274c0-10-3-18-10-26l-186-186c-7-7-16-10-26-10s-19 3-26 10l-22 22c-7 7-10 16-10 26s3 18 10 25l139 139-139 139c-7 7-10 16-10 26s3 19 10 26l22 21c7 7 16 11 26 11s19-4 26-11l186-186c7-7 10-16 10-26z"/><glyph unicode="t" d="M475 342c0 15-2 29-6 41-4 11-9 21-15 28-7 7-15 12-24 17-9 4-18 7-27 9-8 1-18 2-28 2-9 0-20-3-32-7-11-5-22-11-31-19-10-7-18-14-25-20-7-7-12-13-17-18-3-4-8-6-14-6s-11 2-14 6c-5 5-10 11-17 18-7 6-15 13-25 20-9 8-20 14-31 19-12 4-23 7-32 7-10 0-20-1-28-2-9-2-18-5-27-9-9-5-17-10-24-17-6-7-11-17-15-28-4-12-6-26-6-41 0-32 17-66 53-102l166-160 166 160c36 36 53 70 53 102zm37 0c0-42-22-85-65-129l-178-171c-4-4-8-5-13-5s-9 1-13 5l-178 172-8 7c-3 4-8 10-16 19-7 9-13 18-19 28-6 9-11 21-15 34-5 14-7 27-7 40 0 42 12 74 36 98s58 35 101 35c11 0 23-2 36-6 12-4 23-9 34-16s20-14 27-20c8-6 15-12 22-19 7 7 14 13 22 19 7 6 16 13 27 20s22 12 34 16c13 4 25 6 36 6 43 0 77-11 101-35s36-56 36-98z"/><glyph unicode="r" d="M457 238c0-11-3-19-10-26l-186-186c-8-7-17-11-26-11-10 0-19 4-26 11l-22 21c-7 7-10 16-10 26s3 19 10 26l84 84h-201c-10 0-18 3-24 11-6 7-9 15-9 25v37c0 10 3 19 9 26s14 11 24 11h201l-84 84c-7 6-10 15-10 25 0 11 3 19 10 26l22 21c7 8 16 11 26 11s18-3 26-11l186-186c7-6 10-15 10-25z"/><glyph unicode="s" d="M475 256v-37c0-10-3-18-9-25-6-8-14-11-24-11h-201l84-84c7-7 10-16 10-26s-3-19-10-26l-22-21c-7-7-15-11-26-11-9 0-18 4-26 11l-186 186c-7 7-10 16-10 26s3 18 10 26l186 185c8 8 16 11 26 11s19-3 26-11l22-21c7-7 10-16 10-26s-3-18-10-26l-84-83h201c10 0 18-4 24-11s9-16 9-26z"/><glyph unicode="u" d="M477 350c0-7-2-14-8-19l-206-207-39-39c-6-5-12-8-20-8-7 0-14 3-19 8l-142 142c-6 6-8 12-8 20 0 7 2 14 8 19l38 39c6 5 12 8 20 8 7 0 14-3 19-8l84-84 188 188c5 5 12 8 19 8 8 0 14-3 20-8l38-39c6-6 8-12 8-20z"/><glyph unicode="v" d="M303 63l-186 186c-7 7-10 15-10 25 0 11 3 19 10 26l186 186c7 7 16 11 26 11s19-4 26-11l22-21c7-7 10-16 10-26s-3-19-10-26l-139-139 139-138c7-8 10-16 10-26s-3-19-10-26l-22-21c-7-7-16-11-26-11s-19 4-26 11z"/><glyph unicode="w" d="M287 225c56 56 76 91 61 106l-4 4c-11 10-18 18-21 24-4 7-5 16-2 28 2 12 10 27 25 45 6 8 13 15 19 20 5 5 11 8 17 8 7 1 12 1 16 1s9-2 15-7c6-4 10-7 12-9s7-6 13-13l11-11c16-17 15-50-3-99-18-50-53-100-104-151-52-51-102-86-152-105-49-19-82-20-98-4l-12 12c-7 7-12 11-13 13-1 1-4 5-9 12-5 6-7 12-7 16 1 4 1 9 1 15 1 6 3 12 8 18s11 12 19 19c15 12 27 20 36 24 10 4 19 5 28 1s15-7 18-9c3-3 10-9 20-19 15-15 50 5 106 61"/><glyph unicode="x" d="M402 171v5c-1 1-5 4-11 8-7 4-15 9-26 14l-15 9c-1 0-2 1-5 3s-5 4-7 5-4 1-6 1c-4 0-8-3-14-9l-16-19c-5-6-10-9-13-9-1 0-2 0-4 1-2 0-4 1-5 1-1 1-2 2-5 3-2 1-3 2-4 3-18 10-35 22-48 36-14 13-26 30-36 48-1 1-2 2-3 4-1 3-2 4-3 5 0 1-1 3-1 5-1 2-1 3-1 4 0 3 2 6 5 10 4 4 9 8 13 11 5 3 9 7 13 11s6 8 6 11c0 2 0 4-1 6s-3 4-5 7-3 4-3 5c-1 1-2 4-5 8-2 5-4 9-7 13l-7 14c-3 5-5 9-8 12-2 3-3 4-4 5h-5c-9 0-19-2-29-6-8-4-16-13-23-27-6-14-9-26-9-37v-10l2-9c0-2 1-5 2-9 2-4 3-7 3-9 1-1 2-4 4-9s3-7 3-9c11-31 32-61 62-91s60-51 91-62c2 0 4-1 9-3s8-3 9-4c2 0 5-1 9-3 4-1 7-2 9-2l9-2h10c11 0 23 3 37 9 14 7 23 15 27 23 4 10 6 20 6 29zm73 222v-274c0-23-8-42-24-58s-35-24-58-24h-274c-23 0-42 8-58 24s-24 35-24 58v274c0 23 8 42 24 58s35 24 58 24h274c23 0 42-8 58-24s24-35 24-58z"/><glyph unicode="y" d="M392 142c70-24 105-45 105-62v-54h-482v54c0 17 35 38 105 62 32 12 54 24 65 36 12 12 18 28 18 48 0 8-4 16-12 25-7 10-12 22-16 38-1 4-2 7-5 9-2 2-4 3-7 4-2 1-4 4-7 9-2 5-4 12-4 22 0 5 0 10 2 13 2 4 3 6 5 6l2 2c-3 17-5 32-6 45-2 19 5 38 21 58 15 19 42 29 80 29s65-10 81-29c16-20 22-39 20-58l-6-45c6-2 9-10 9-21 0-10-2-17-4-22-3-5-5-8-7-9-3-1-5-2-7-4-3-2-4-5-5-9-3-17-8-29-16-38s-12-17-12-25c0-20 6-36 18-48s34-24 65-36"/><glyph unicode="z" d="M448 375l-130 130c-4 5-10 7-16 7h-223c-13 0-23-11-23-24v-466c0-13 10-23 23-23h353c13 0 23 10 23 23v337c0 6-2 12-7 16zm-40-26h-118v116h2zm-305-303v419h140v-139c0-13 11-24 24-24h141v-256z"/></font>
</defs>
</svg>
